<svg xmlns="http://www.w3.org/2000/svg" baseProfile="full" version="1.1" width="1860px" height="795px" style="fill: none; width: 1860px; height: 795px;"><path d="" style="stroke-width: 15; stroke-linecap: round; stroke-linejoin: round; stroke: rgb(106, 106, 106); fill: none;"/><path d="" style="stroke-width: 15; stroke-linecap: round; stroke-linejoin: round; stroke: rgb(74, 74, 74); fill: none;"/><path d="M780,120 L780,120 L1020,120 L1020,120 L1080,180 L1080,180 L1080,270 L1080,270 M780,120 L780,120 L780,510 M1005,195 L1005,195 L1005,120 M1005,195 L1005,195 L1080,195 M840,270 L840,270 L1125,270 L1125,270 L1125,495 L1125,495 L840,495 L840,495 L840,270 M1080,495 L1080,495 L1080,540 L1080,540 L780,540 M900,300 A30,30 0 0,1 930,330 L930,330 A30,30 0 0,1 900,360 L900,360 A30,30 0 0,1 870,330 L870,330 A30,30 0 0,1 900,300 M1095,330 A30,30 0 0,1 1065,360 L1065,360 A30,30 0 0,1 1035,330 L1035,330 A30,30 0 0,1 1065,300 L1065,300 A30,30 0 0,1 1095,330 M945,330 L945,330 L1020,330 L1020,330 L1005,345 M1005,315 L1005,315 L1020,330 M945,330 Q975,345 975,390 Q975,390 975,390 Q975,435 1020,435 M1005,420 L1005,420 L1020,435 L1020,435 L1005,450 M1065,405 A30,30 0 0,1 1095,435 L1095,435 A30,30 0 0,1 1065,465 L1065,465 A30,30 0 0,1 1035,435 L1035,435 A30,30 0 0,1 1065,405 " style="stroke-width: 15; stroke-linecap: round; stroke-linejoin: round; stroke: rgb(10, 10, 10); fill: none;"/></svg>